<?xml version="1.0" encoding="UTF-8" standalone="no"?>
<svg
   xmlns:dc="http://purl.org/dc/elements/1.1/"
   xmlns:cc="http://creativecommons.org/ns#"
   xmlns:rdf="http://www.w3.org/1999/02/22-rdf-syntax-ns#"
   xmlns:svg="http://www.w3.org/2000/svg"
   xmlns="http://www.w3.org/2000/svg"
   xmlns:sodipodi="http://sodipodi.sourceforge.net/DTD/sodipodi-0.dtd"
   xmlns:inkscape="http://www.inkscape.org/namespaces/inkscape"
   version="1.1"
   id="Layer_1"
   x="0px"
   y="0px"
   viewBox="0 0 613.61328 200.64496"
   xml:space="preserve"
   sodipodi:docname="brand-logo.svg"
   width="613.61328"
   height="200.64496"
   inkscape:version="1.0.1 (c497b03c, 2020-09-10)"><metadata
   id="metadata193"><rdf:RDF><cc:Work
       rdf:about=""><dc:format>image/svg+xml</dc:format><dc:type
         rdf:resource="http://purl.org/dc/dcmitype/StillImage" /><dc:title></dc:title></cc:Work></rdf:RDF></metadata><defs
   id="defs191" /><sodipodi:namedview
   pagecolor="#ffffff"
   bordercolor="#666666"
   borderopacity="1"
   objecttolerance="10"
   gridtolerance="10"
   guidetolerance="10"
   inkscape:pageopacity="0"
   inkscape:pageshadow="2"
   inkscape:window-width="1440"
   inkscape:window-height="847"
   id="namedview189"
   showgrid="false"
   fit-margin-top="0"
   fit-margin-left="0"
   fit-margin-right="0"
   fit-margin-bottom="0"
   inkscape:zoom="1.0898693"
   inkscape:cx="204.50415"
   inkscape:cy="100.32496"
   inkscape:window-x="0"
   inkscape:window-y="25"
   inkscape:window-maximized="0"
   inkscape:current-layer="Layer_1"
   inkscape:document-rotation="0" />
<style
   type="text/css"
   id="style151">
	.st0{fill:#FFFFFF;}
	.st1{fill:#B72C28;}
</style>
<g
   id="logo_1_"
   transform="translate(-89.19,-205.67504)">
	<g
   id="g185">
		<g
   id="g171">
			<path
   class="st0"
   d="m 698.52,218.61 c -4.16,-6.01 -13.34,-13.15 -33.54,-12.93 H 178.31 c -23.42,0.34 -37.62,16.52 -42.69,30.28 -0.04,0.11 -44.94,130.77 -44.94,130.77 -1.33,4.29 -1.49,7.06 -1.49,9.02 0,17.14 12.49,30.57 28.44,30.57 h 489.21 c 18.12,0 40.07,-9.44 48.23,-30.5 l 0.08,-0.23 4.96,-14.77 c -0.03,0.08 39.59,-113.04 39.59,-113.04 5.69,-14.38 2.5,-23.82 -1.18,-29.17 z"
   id="path153" />
			<g
   id="g169">
				<path
   class="st1"
   d="m 250.71,288.74 c -2.98,0 -7.12,2.47 -10.51,6.06 -3.52,3.83 -6.38,8.66 -8.2,14.07 -3.86,10.87 -2.04,19.95 4.53,19.95 6.88,0 14.92,-8.58 18.94,-19.95 3.9,-11.04 1.97,-20.13 -4.76,-20.13 z"
   id="path155" />
				<path
   class="st1"
   d="m 686.41,225.8 c -3.7,-5.37 -12.21,-8.16 -24.07,-8.09 H 180.7 c -22.58,0.39 -30.7,19.07 -31.97,22.66 L 104.3,369.58 c -0.85,2.55 -0.92,4.21 -0.92,5.41 0,10.98 7.35,19.29 17.05,19.29 h 484.3 c 13.84,0 30.5,-6.92 37.01,-22.07 H 137.98 l 3.95,-13.54 h 504.41 c 0.35,-1.2 0.66,-1.93 0.66,-1.93 0,0 39.24,-112.01 39.33,-112.27 1.18,-3.05 2.31,-6.96 2.31,-10.71 -0.02,-2.86 -0.59,-5.64 -2.23,-7.96 z M 182.55,351.68 c -20.91,0.08 -32.63,-29.69 -25.29,-58.41 7.97,-31.47 32.2,-57.57 53.97,-57.57 12.64,0.08 24.71,8.7 29.08,23.2 l -15.43,8.43 c -0.88,-9.39 -7.92,-14.39 -14.72,-14.5 -12.56,0 -27.49,18.21 -33.29,39.86 -5.49,20.45 -1.4,39.16 10.87,39.23 4.71,0.12 9.39,-2.55 14.11,-6.76 l 8.81,14.65 c -9.16,7.62 -19.29,11.87 -28.11,11.87 z m 51.08,-6.73 c -14.46,0 -21.8,-16.2 -16.13,-35.76 5.84,-20.22 22.46,-36 37.43,-36 14.77,0 21.49,16.35 15.77,36 -5.72,19.91 -22.31,35.76 -37.07,35.76 z m 31.89,-1.47 35.14,-104.74 h 16.51 l -35.14,104.74 z m 52.12,1.16 c -14.58,0 -21.85,-15.81 -16.16,-35.37 5.76,-20.03 22.07,-36.42 37.08,-36.42 14.3,0 20.88,16.51 15.39,35.38 -0.5,2.12 -1.47,4.25 -2.28,6.37 h -36.61 c -1.31,8.27 0.85,14.42 5.91,14.42 3.82,0 8,-2.98 11.64,-7.81 h 16.08 l -0.73,1.81 c -6.63,11.96 -19.81,21.62 -30.32,21.62 z m 91.04,-1.16 16.43,-48.83 c 1.16,-3.29 -0.88,-6.57 -4.52,-6.57 -3.64,0 -7.82,2.94 -9.05,6.57 l -16.36,48.83 h -16.5 l 16.43,-48.83 c 1.2,-3.63 -0.81,-6.57 -4.45,-6.57 -3.59,0 -7.92,2.28 -9.31,6.57 l -16.2,48.83 H 348.6 l 23.51,-69.09 h 16.51 l -1.47,4.45 c 3.6,-3.13 8.35,-5.65 13.53,-5.57 5.76,0.08 8.9,3.71 10.29,6.8 3.75,-4.02 11.29,-6.88 17.78,-6.8 7.42,0.08 17.86,6.8 12.6,22.58 l -16.12,47.63 z m 59.15,-0.11 1.54,-5.34 0.19,-0.42 c -4.75,6.11 -11.98,7.62 -16.93,6.61 -12.02,-2.59 -15.51,-20.76 -7.96,-40.28 7.38,-19.56 23.16,-33.76 34.99,-31.32 3.83,0.89 7.15,2.63 9.63,5.42 l 0.11,0.15 1.21,-3.87 h 16.27 l -23.31,69.05 z m 91.29,-53.9 -18.02,54.01 h -16.46 l 16.12,-47.24 c 2.05,-6.03 -3.25,-8.66 -7.19,-8 -3.43,0.51 -7.35,2.59 -9.97,9.74 l -15.46,45.51 h -16.55 l 23.54,-69.09 h 16.48 l -1.47,4.45 c 4.02,-3.13 9.7,-5.57 14.88,-5.57 7.53,-0.08 16.3,6.41 14.1,16.19 z m 93.56,18.68 -0.13,0.15 -15.5,-9.48 -0.07,-0.08 c -0.75,-0.47 -1.55,-0.19 -2.06,0.62 -0.35,0.78 -0.07,1.66 0.66,2.16 h 0.08 l 16.15,9.94 v 0.28 c -5.76,20.17 -20.88,34.68 -38.62,34.68 -17.79,0 -32.9,-14.5 -38.71,-34.68 v -0.16 l 16.33,-10.06 h 0.07 c 0.66,-0.5 0.93,-1.39 0.54,-2.16 -0.35,-0.81 -1.2,-1.09 -1.93,-0.62 l -0.08,0.08 -15.74,9.63 v -0.31 c -1,-4.48 -1.58,-9.32 -1.58,-14.23 0,-2.36 0.07,-4.68 0.34,-6.88 v -0.19 h 17.9 0.08 c 0.8,0 1.47,-0.66 1.47,-1.55 0,-0.92 -0.66,-1.58 -1.47,-1.58 h -0.08 -17.4 v -0.31 c 0.97,-6.5 2.98,-12.57 5.76,-17.9 l 0.08,-0.16 10.17,6.03 0.07,0.08 c 0.74,0.35 1.55,0.09 1.97,-0.69 0.35,-0.81 0.08,-1.78 -0.66,-2.13 l -0.12,-0.08 -10.04,-5.84 0.11,-0.19 c 7.42,-12.76 19.44,-20.99 32.9,-20.99 13.45,0 25.36,8.16 32.86,20.99 l 0.11,0.19 -10.01,5.84 -0.07,0.08 c -0.66,0.35 -1.09,1.32 -0.66,2.13 0.35,0.78 1.27,1.04 1.93,0.69 l 0.11,-0.08 10.13,-6.03 0.16,0.23 c 2.71,5.34 4.64,11.4 5.68,17.94 v 0.2 h -17.35 -0.13 c -0.73,0 -1.39,0.66 -1.39,1.58 0,0.9 0.66,1.55 1.39,1.55 h 0.13 17.78 v 0.27 c 0.18,2.24 0.38,4.44 0.38,6.8 0.03,4.92 -0.54,9.68 -1.54,14.24 z"
   id="path157" />
				<path
   class="st1"
   d="m 334.64,287.35 c -2.9,0 -6.88,2.55 -10.01,6.34 -2.16,2.48 -4.06,5.34 -5.61,8.39 l 21.65,0.11 c 1.4,-8.58 -0.73,-14.84 -6.03,-14.84 z"
   id="path159" />
				<path
   class="st1"
   d="m 613.09,328.29 h 16.81 c 0.2,0 0.38,-0.2 0.38,-0.39 0,-1.51 0,-7.5 0,-12.14 0,-5.49 -5.4,-6.72 -7.02,-6.72 -1.82,0 -10.17,0 -10.17,0 0,0 -8.28,0 -10.05,0 -1.64,0 -7.04,1.23 -7.04,6.72 0,4.64 0,10.63 0,12.14 0,0.19 0.18,0.39 0.27,0.39 z"
   id="path161" />
				<path
   class="st1"
   d="m 476.76,289.82 c -5.07,-2.24 -11.68,5.37 -16.98,15.51 -5.1,9.93 -5.33,21.45 -0.8,22.69 4.71,1.08 10.82,-5.42 14.92,-12.84 3.79,-6.72 9.39,-22.57 2.86,-25.36 z"
   id="path163" />
				<path
   class="st1"
   d="m 631.61,264.11 c -0.59,-0.31 -1.71,-0.66 -2.79,-1.59 -0.85,-0.54 -1.97,-2.04 -2.4,-2.71 l -0.15,-0.16 c -0.35,-0.61 -0.42,-0.77 -1.09,-0.77 h -0.15 -1.31 c -0.39,0 -0.78,-0.23 -1.08,-0.66 -0.28,-0.39 -0.86,-1.32 -1.02,-1.63 -0.08,-0.27 0.08,-0.42 0.47,-0.42 h 1.32 c 0.39,0 0.59,-0.31 0.39,-0.66 -0.28,-0.38 -0.54,-0.73 -0.97,-1.19 -0.27,-0.66 -0.47,-0.78 -1.04,-0.78 h -0.23 -1.3 c -0.51,0 -0.85,-0.16 -1.02,-0.62 -0.3,-0.27 -0.66,-0.92 -0.96,-1.39 l -0.08,-0.19 c -0.08,-0.08 -0.08,-0.08 -0.08,-0.2 -0.27,-0.47 -1.09,-0.47 -1.09,-0.47 h -7.86 c 0,0 -0.72,0 -1.03,0.47 -0.08,0.11 -0.08,0.11 -0.2,0.2 l -0.08,0.19 c -0.27,0.47 -0.65,1.12 -0.8,1.39 -0.28,0.47 -0.66,0.62 -1,0.62 h -1.4 -0.24 c -0.65,0 -0.8,0.11 -1.07,0.78 -0.31,0.46 -0.66,0.81 -0.82,1.19 -0.31,0.35 -0.08,0.66 0.27,0.66 h 1.28 c 0.5,0 0.66,0.16 0.5,0.42 -0.15,0.31 -0.8,1.24 -1.04,1.63 -0.27,0.42 -0.65,0.66 -1,0.66 h -1.31 -0.16 c -0.66,0 -0.78,0.16 -1.16,0.77 l -0.09,0.16 c -0.47,0.66 -1.62,2.16 -2.35,2.71 -1.2,0.92 -2.2,1.28 -2.86,1.59 -0.66,0.27 -0.73,0.73 -0.73,1.16 0,0.58 0.35,0.74 0.66,0.74 0,0 0.88,0 2.27,0 1.4,0 1.4,0.5 1.4,1.89 0,0 0,23.39 0,25.36 0,2.09 0.35,2.51 2.2,3.24 1.82,0.73 3.87,0.85 3.87,4.02 0,3.14 0,6.19 0,6.19 h 17.63 c 0,0 0,-3.05 0,-6.19 0,-3.17 2.09,-3.29 3.94,-4.02 1.73,-0.73 2.13,-1.16 2.13,-3.24 0,-1.97 0,-25.36 0,-25.36 0,-1.39 0,-1.89 1.39,-1.89 1.36,0 2.32,0 2.32,0 0.27,0 0.73,-0.16 0.73,-0.74 -0.01,-0.42 -0.21,-0.89 -0.81,-1.16 z m -6.24,28.65 c 0,0.51 -0.35,0.93 -0.93,0.93 h -22.58 -0.18 c -0.47,0 -0.86,-0.42 -0.86,-0.93 v -25.59 c 0,-0.5 0.47,-0.93 0.97,-0.93 h 22.65 c 0.44,0 0.93,0.43 0.93,0.93 z"
   id="path165" />
				<path
   class="st1"
   d="m 631.01,330.5 h -35.84 c -0.23,0 -0.42,0.19 -0.42,0.35 v 2.74 c 0,0.2 0.2,0.39 0.42,0.39 h 17.91 17.93 c 0.15,0 0.35,-0.19 0.35,-0.39 v -2.74 c 0.01,-0.16 -0.19,-0.35 -0.35,-0.35 z"
   id="path167" />
			</g>
		</g>
		<g
   id="g177">
			<path
   class="st0"
   d="m 126.07,356.02 c -4.6,0 -8.33,3.72 -8.33,8.33 0,4.6 3.73,8.33 8.33,8.33 4.61,0 8.34,-3.73 8.34,-8.33 0,-4.61 -3.73,-8.33 -8.34,-8.33 z"
   id="path173" />
			<path
   class="st1"
   d="m 126.01,371.62 c -3.98,0 -7.21,-3.23 -7.21,-7.21 0,-3.98 3.22,-7.21 7.21,-7.21 3.98,0 7.21,3.22 7.21,7.21 -0.01,3.98 -3.23,7.21 -7.21,7.21 z"
   id="path175" />
		</g>
		<g
   id="g183">
			<path
   class="st0"
   d="m 129.94,362.62 c 0,-2.31 -1.36,-2.67 -3.37,-2.67 h -3.59 v 8.69 h 1.82 v -3.45 h 0.88 l 2.03,3.45 h 1.98 l -2.11,-3.45 c 1.54,-0.1 2.36,-0.97 2.36,-2.57 z"
   id="path179" />
			<path
   class="st1"
   d="m 126.61,363.64 h -1.81 v -2.12 h 1.37 c 0.85,0 2.01,0 2.01,0.95 -0.01,0.95 -0.6,1.17 -1.57,1.17 z"
   id="path181" />
		</g>
	</g>
</g>
</svg>
