<svg width="76" height="8" viewBox="0 0 76 8" fill="none" xmlns="http://www.w3.org/2000/svg">
<path d="M2.49422 5.32289V2.80452L0 4.00771L2.49422 5.32289Z" fill="#696158"/>
<path d="M5.41947 3.5926H10.8631V4.38274H5.41947V7.02749H12.0724V7.81762H4.39558V0.452093H11.9332V1.24223H5.41947V3.5926Z" fill="#696158"/>
<path d="M20.5867 0.452093H21.9476L18.1557 3.98818L22.2147 7.81762H20.8657L17.4924 4.61598L14.0611 7.81762H12.6771L16.7948 3.99795L13.0259 0.452093H14.3869L17.4693 3.37991L20.5867 0.452093Z" fill="#696158"/>
<path d="M35.2751 3.57257H40.9278V4.3627H35.2751V7.81762H34.2512V0.452093H41.9748V1.24223H35.2751V3.57257Z" fill="#696158"/>
<path d="M43.8187 3.57257H49.4719V4.3627H43.8187V7.81762H42.7953V0.452093H50.5189V1.24223H43.8187V3.57257Z" fill="#696158"/>
<path d="M52.5949 0.452093H51.5715V7.81762H52.5949V0.452093Z" fill="#696158"/>
<path d="M62.8616 5.86232C61.9543 7.39224 60.3838 8 58.3252 8C55.045 8 53.4981 6.2877 53.4981 4.15001C53.4981 1.61726 55.4637 0.269715 58.3134 0.269715C60.1279 0.269715 61.9774 0.877473 62.7336 2.37709L61.8495 2.73157C61.2561 1.52582 59.942 1.01927 58.3252 1.01927C55.906 1.01927 54.5446 2.16388 54.5446 4.2615C54.5446 5.95325 55.8592 7.20986 58.4182 7.20986C60.093 7.20986 61.2566 6.60211 61.9543 5.47752L62.8616 5.86232Z" fill="#696158"/>
<path d="M64.9263 0.452093H63.9024V7.81762H64.9263V0.452093Z" fill="#696158"/>
<path d="M70.3874 7.20986C72.4465 7.20986 74.2959 6.25739 74.2959 4.01849C74.2959 2.3776 72.842 1.01978 70.3874 1.01978C67.9327 1.01978 66.4788 2.3776 66.4788 4.01849C66.4793 6.25739 68.3052 7.20986 70.3874 7.20986ZM70.3874 0.269715C73.2607 0.269715 75.3424 1.72874 75.3424 4.18032C75.3424 6.79425 72.8302 8 70.3874 8C67.9445 8 65.4323 6.79425 65.4323 4.18032C65.4323 1.72874 67.5145 0.269715 70.3874 0.269715Z" fill="#696158"/>
<path d="M24.7326 1.4729H26.6961V0.416645C26.2312 0.432058 25.8911 0.479322 25.4595 0.554328C25.1785 0.869253 24.9371 1.17647 24.7326 1.4729ZM25.4488 7.62548C25.8834 7.70152 26.2281 7.74981 26.6961 7.76368V6.71462H24.5477C24.9073 7.18931 25.2823 7.49962 25.4488 7.62548ZM24.6509 0.734138C23.9897 0.916517 23.3928 1.16722 22.8836 1.4729H24.1454C24.356 1.11945 24.5492 0.861546 24.6509 0.734138ZM27.3075 6.71462V7.76676C27.8526 7.76368 28.2702 7.71693 28.7711 7.63165C28.8631 7.54585 29.2083 7.21757 29.5721 6.71462H27.3075ZM30.2219 1.4729H31.363C30.8754 1.17904 30.3072 0.936039 29.6794 0.756229C29.7878 0.873876 29.9995 1.11945 30.2219 1.4729ZM31.1708 3.4693H33.0758C32.9129 2.88877 32.5271 2.46391 31.9723 2.00976H30.5733C30.7927 2.43874 31.0968 2.86103 31.1708 3.4693ZM29.551 7.46108C30.2261 7.27922 30.8354 7.02543 31.3547 6.71462H30.1084C29.9486 6.95967 29.7647 7.20832 29.551 7.46108ZM23.9964 6.71462H22.8934C23.3707 6.99974 23.925 7.23863 24.5379 7.41587C24.3267 7.18315 24.148 6.94888 23.9964 6.71462ZM23.8022 2.00976H22.2754C21.721 2.46391 21.3347 2.88877 21.1724 3.4693H23.1482C23.2607 2.87696 23.5798 2.45107 23.8022 2.00976ZM29.9425 2.00976H27.308V3.4693H30.5317C30.4619 2.96429 30.28 2.54816 29.9425 2.00976ZM23.0768 4.70485H21.1698C21.3203 5.25353 21.6722 5.65168 22.1757 6.0899H23.5952C23.3511 5.58335 23.1164 5.18829 23.0768 4.70485ZM31.1436 4.70485C31.0619 5.19959 30.8025 5.55407 30.5215 6.0899H32.0714C32.5754 5.65168 32.9273 5.25353 33.0784 4.70485H31.1436ZM23.8145 3.4693H26.6966V2.00976H24.4583C24.1259 2.56923 23.9224 2.98382 23.8145 3.4693ZM28.7506 0.546622C28.2564 0.462882 27.8454 0.416132 27.308 0.413049V1.4729H29.6419C29.4015 1.16568 29.1071 0.855895 28.7506 0.546622ZM24.2112 6.0899H26.6961V4.70485H23.7339C23.7919 5.28076 23.9779 5.6712 24.2112 6.0899ZM30.4901 4.70485H27.308V6.0899H29.908C30.1572 5.66093 30.3797 5.26432 30.4901 4.70485Z" fill="#696158"/>
<path d="M75.0162 0.486514H75.1683C75.2607 0.486514 75.3337 0.476753 75.3337 0.385821C75.3337 0.297457 75.2525 0.287696 75.1683 0.287696H75.0162V0.486514ZM75.1436 0.561007H75.0162V0.839969H74.9242V0.212689H75.2001C75.3568 0.212689 75.4257 0.273311 75.4257 0.386848C75.4257 0.495762 75.344 0.547136 75.2505 0.561007L75.4606 0.839969H75.347L75.1436 0.561007ZM75.1498 0.971487C75.4231 0.971487 75.644 0.773696 75.644 0.528127C75.644 0.282045 75.4231 0.0832263 75.1498 0.0832263C74.8765 0.0832263 74.6571 0.282558 74.6571 0.528127C74.6571 0.773696 74.8765 0.971487 75.1498 0.971487ZM75.1498 0C75.4734 0 75.736 0.23478 75.736 0.526586C75.736 0.818392 75.4734 1.05471 75.1498 1.05471C74.8261 1.05471 74.5651 0.818392 74.5651 0.526586C74.5657 0.23478 74.8261 0 75.1498 0Z" fill="#696158"/>
</svg>
