<svg width="54" height="10" viewBox="0 0 54 10" fill="none" xmlns="http://www.w3.org/2000/svg">
<path d="M13.8516 1.22621C14.1621 1.22621 14.4625 1.58764 14.7798 1.96934C15.0649 2.3122 16.2665 4.20888 16.3778 4.42169C16.4892 4.6345 16.5398 4.7105 16.6208 4.7105C16.7018 4.7105 16.766 4.71388 16.9482 4.28489C17.3161 3.41846 18.1734 2.21931 18.8129 1.58933C19.0272 1.3799 19.1082 1.23128 19.3411 1.22959C20.0347 1.22114 21.0843 1.22959 21.1704 1.22959C21.2564 1.22959 21.3729 1.26843 21.3729 1.39848C21.3729 1.52853 21.3678 1.71431 21.3678 1.92712C21.3678 2.13993 21.1333 2.20242 21.0253 2.20242C20.9173 2.20242 20.8244 2.26829 20.7333 2.3578C20.5764 2.51487 20.5831 2.68039 20.5831 2.98271C20.5831 3.28672 20.5848 6.67306 20.5814 7.09191C20.5781 7.42464 20.9274 7.50064 21.0877 7.52428C21.248 7.54793 21.4286 7.61211 21.4286 7.73371C21.4286 7.82154 21.4269 8.24546 21.4269 8.29275C21.4269 8.34004 21.3982 8.57143 21.1788 8.57143H18.683C18.5581 8.57143 18.3843 8.50387 18.3843 8.438V7.72865C18.3843 7.61717 18.4687 7.53779 18.5716 7.53779C18.6745 7.53779 18.5885 7.53442 18.7049 7.53442C18.8214 7.53442 19.1065 7.43984 19.1184 7.01591C19.1217 6.87911 19.12 4.05181 19.1217 3.92514C19.1217 3.84914 19.1217 3.6414 18.98 3.6414C18.8399 3.6414 18.818 3.7326 18.71 3.88967C18.1717 4.66659 17.5287 6.14441 17.2739 6.98213C17.2081 7.20169 17.1676 7.32668 17.1575 7.35201C17.1052 7.48206 17.009 7.60704 16.879 7.65264C16.7913 7.68304 16.4926 7.72189 16.2715 7.57495C16.1585 7.50064 16.1331 7.40268 16.1061 7.28952C16.0825 7.18818 16.0538 7.0936 16.0302 7.01591C15.3957 4.88784 14.3596 3.86772 14.2971 3.76131C14.2701 3.71402 14.1959 3.63633 14.1469 3.65322C14.1166 3.66336 14.1064 3.69545 14.1064 3.77651C14.1064 3.85758 14.1064 6.93822 14.1064 7.13245C14.1064 7.32668 14.2988 7.4753 14.4389 7.50908C14.5789 7.54286 14.8203 7.55637 14.8186 7.7202C14.8186 7.80803 14.8169 8.22688 14.8169 8.36876C14.8169 8.51063 14.6937 8.55285 14.6127 8.55285C14.5317 8.55285 12.3059 8.54947 12.1185 8.54947C12.0055 8.54947 11.8907 8.48867 11.889 8.39071C11.889 8.35693 11.8907 7.81816 11.8907 7.69487C11.8907 7.57326 11.9751 7.52428 12.0375 7.50739C12.1118 7.49895 12.1827 7.49895 12.2552 7.49895C12.3278 7.49895 12.6586 7.46855 12.6586 6.98044C12.6602 6.38087 12.6586 3.00973 12.6586 2.66688C12.6586 2.32402 12.2097 2.20917 12.1574 2.20917C12.105 2.20917 12.0375 2.20749 11.9684 2.20749C11.8992 2.20749 11.862 2.13655 11.8418 2.0977L11.8367 1.37652C11.8401 1.29377 11.8924 1.22283 11.9599 1.22449C11.9582 1.2279 13.5411 1.22621 13.8516 1.22621Z" fill="#696158"/>
<path d="M51.182 1.43027C51.2292 1.43027 51.4684 1.42005 51.4684 1.67897V2.72825C51.4684 2.85941 51.5476 2.91903 51.6504 2.91903C51.7532 2.91903 51.9486 2.92243 52.0783 2.92243C52.2081 2.92243 52.39 2.95309 52.39 3.08766C52.39 3.22052 52.3833 3.54757 52.385 3.66C52.3866 3.81671 52.3024 3.87803 52.2232 3.87803C52.1423 3.87803 51.765 3.87973 51.6858 3.87973C51.6066 3.87973 51.4701 3.9121 51.4701 4.04155C51.4701 4.17271 51.4684 6.61536 51.4684 7.20132C51.4684 7.78728 52.1946 7.75491 52.2805 7.75491C52.3664 7.75491 52.449 7.83327 52.449 7.96784C52.449 8.1007 52.4254 8.42945 52.4254 8.52314C52.4254 8.61682 52.3496 8.71732 52.2367 8.73606C52.1238 8.7548 52.0042 8.77524 51.9385 8.77524C51.8475 8.77524 51.9014 8.77694 51.2258 8.77183C50.4896 8.76672 50.0111 8.15351 50.0077 7.32055C50.0061 6.99351 50.0044 4.18634 50.0061 4.10458C50.0077 3.95809 49.9741 3.87973 49.8881 3.87973H49.5529C49.4265 3.87973 49.3911 3.84055 49.3911 3.77072C49.3911 3.69917 49.3878 3.05359 49.3878 3.01953C49.3878 2.98546 49.3861 2.88496 49.5091 2.88496C49.6304 2.88496 49.7466 2.88155 49.8376 2.88155C49.9286 2.88155 50.0482 2.81171 50.0482 2.64308C50.0482 2.47615 50.0465 1.64831 50.0465 1.57336C50.0465 1.50011 50.1307 1.43027 50.1846 1.42857C50.2807 1.43027 51.1349 1.43027 51.182 1.43027Z" fill="#696158"/>
<path d="M32.653 4.0799C32.6564 4.60429 32.4944 4.58209 32.4484 4.58209C32.4041 4.58209 31.6829 4.58551 31.4749 4.58551C31.2651 4.58551 31.2293 4.35149 31.2106 4.29513C31.1918 4.24217 31.0316 3.94496 30.5712 3.94496C30.1126 3.94496 29.9694 4.27634 29.9694 4.44202C29.9694 4.606 29.9694 7.14768 29.9694 7.39365C29.9694 7.67036 30.0938 7.74893 30.2098 7.79676C30.3257 7.8463 30.4877 7.88558 30.6377 7.88558C30.7878 7.88558 30.8304 7.95562 30.8304 8.02906C30.8304 8.10251 30.8253 8.56541 30.8253 8.61153C30.8253 8.65765 30.7349 8.77551 30.619 8.77551C30.503 8.77551 28.1894 8.77551 28.1297 8.77551C28.0632 8.77551 27.9626 8.70719 27.9626 8.65765C27.9626 8.60812 27.9592 8.08031 27.9592 7.99319C27.9592 7.90608 27.995 7.86509 28.0478 7.85313C28.1246 7.848 28.1518 7.85142 28.2235 7.85142C28.2951 7.85142 28.6412 7.80018 28.6412 7.45001C28.6412 7.09985 28.6446 4.68799 28.6429 4.29171C28.6412 3.92446 28.411 3.85443 28.2985 3.85785C28.2354 3.85956 28.1553 3.85272 28.1041 3.85272C28.0513 3.85272 27.9592 3.83052 27.9592 3.73145V3.0687C27.9592 2.99525 27.9916 2.94572 28.0734 2.94572C28.1553 2.94572 30.0819 2.94401 30.0819 2.94401C30.5201 2.87568 30.6002 2.83981 31.4663 2.86543C32.2847 2.89106 32.6513 3.72632 32.653 4.0799Z" fill="#696158"/>
<path d="M36.1107 2.8589C37.1183 2.84353 37.7013 3.27371 37.7738 3.27371C37.8462 3.27371 38.3551 2.85207 39.8226 2.85714C41.8985 2.86402 42.6263 4.46693 42.6263 5.90768C42.6263 7.35013 42.4393 7.54473 42.5522 7.64886C42.7493 7.82981 43.0695 7.71202 43.0611 7.91175C43.0526 8.06367 43.0526 8.59456 43.0526 8.62529C43.0526 8.65602 42.9616 8.77551 42.8892 8.77551C42.8167 8.77551 41.3374 8.76698 41.0931 8.76698C40.8504 8.76698 40.8942 8.61846 40.96 8.41362C41.1807 7.73592 41.1841 6.70657 41.1874 5.89231C41.1925 4.08285 40.3567 3.98555 39.5143 3.90531C39.0071 3.85752 38.6567 4.06578 38.6179 4.12894C38.5792 4.1921 38.5539 4.23648 38.569 4.27233C38.6651 4.51473 38.8723 5.16511 38.8706 5.98961C38.8706 6.53416 38.7291 7.04457 38.7325 7.42695C38.7358 7.85712 39.2936 7.73763 39.2919 7.96466C39.2902 8.12513 39.2868 8.42727 39.2868 8.51945C39.2868 8.60993 39.1739 8.75503 39.0728 8.75503H37.211C37.0812 8.75503 37.0863 8.64577 37.1048 8.49043C37.1234 8.3368 37.3744 7.21357 37.3896 7.07017C37.4048 6.92678 37.4317 6.41638 37.4283 6.19275C37.4014 4.44133 37.1823 3.99067 35.7316 3.89507C35.2531 3.86264 35.0155 4.01457 35.0105 4.13406C35.0071 4.27745 35.0138 7.35354 35.0138 7.47133C35.0138 7.58912 35.1655 7.72909 35.3508 7.78713C35.5362 7.84517 35.671 7.87931 35.671 7.97832C35.671 8.07733 35.6727 8.39825 35.6727 8.51433C35.6727 8.63041 35.4839 8.73796 35.4132 8.73796C35.3407 8.73796 33.3188 8.73796 33.2059 8.73796C33.093 8.73796 32.9869 8.64748 32.9869 8.58432C32.9869 8.52116 32.9902 8.02953 32.9902 7.95784C32.9902 7.88614 33.0357 7.83152 33.216 7.83152C33.3963 7.83152 33.6255 7.5618 33.6238 7.45597C33.6204 7.29038 33.6238 4.3133 33.6238 4.17673C33.6238 4.04017 33.4637 3.84045 33.1941 3.83703C33.1436 3.83703 33.1065 3.8302 33.061 3.83191C32.9009 3.83362 32.8571 3.71925 32.8571 3.66121C32.8571 3.60317 32.8588 3.18153 32.8588 3.1252C32.8588 3.07057 32.9009 2.92718 32.9717 2.92718C33.0442 2.92718 35.1571 2.92547 35.2716 2.92547C35.5042 2.86402 35.6171 2.86572 36.1107 2.8589Z" fill="#696158"/>
<path d="M25.0575 5.80697C24.9176 5.80697 24.1948 5.787 23.6591 5.82362C23.0694 5.86522 22.6667 6.15149 22.6667 6.65911C22.6667 7.23164 23.2311 7.46964 23.6742 7.46631C23.9286 7.46465 25.0069 7.46465 25.1215 7.46465C25.2361 7.46465 25.2647 7.37477 25.2647 7.25161C25.2647 7.19669 25.2613 6.01002 25.2613 5.95843C25.2613 5.9085 25.199 5.80697 25.0575 5.80697ZM23.8292 2.65306C25.9656 2.65306 26.6614 3.79313 26.6665 4.98978C26.6682 5.44248 26.6665 6.54261 26.6665 6.94704C26.6665 7.35147 26.776 7.42637 26.8906 7.53122C27.0051 7.63607 27.177 7.69433 27.2949 7.69433C27.4129 7.69433 27.551 7.82248 27.551 7.93399C27.551 8.0455 27.546 8.2369 27.546 8.32511C27.546 8.41332 27.5173 8.57143 27.2477 8.56976C27.0742 8.56976 24.1561 8.57143 23.7096 8.57143C23.0744 8.57143 21.2245 8.36172 21.2245 6.53096C21.2262 4.83999 23.3979 4.59034 24.1055 4.58868C24.3684 4.58868 24.5133 4.58702 24.7087 4.59201C24.9598 4.59867 25.0507 4.55539 25.0507 4.46053C25.0507 4.38563 24.9817 4.19923 24.7542 3.98952C24.5268 3.77981 24.1089 3.68994 23.5327 3.68994C22.9565 3.68994 22.7712 3.80811 22.6802 3.89465C22.5875 3.97953 22.4982 4.07107 22.5016 4.25249C22.5016 4.31407 22.4561 4.43723 22.4123 4.45221C22.3685 4.46552 22.1798 4.4289 21.9911 4.44222C21.8024 4.45553 21.6727 4.4572 21.5598 4.43057C21.4452 4.40394 21.4182 3.98952 21.4182 3.70658C21.4182 3.42365 21.4503 3.1274 21.5699 3.0292C21.7822 2.91935 22.1899 2.65473 23.8292 2.65306Z" fill="#696158"/>
<path d="M43.0613 5.72824C43.0715 3.47371 45.1141 2.85884 46.3247 2.85715C48.0719 2.85545 49.3878 3.77522 49.3878 5.66557C49.3878 7.46275 47.9598 8.77211 46.2347 8.7755C44.3772 8.77888 43.0528 7.53559 43.0613 5.72824ZM46.2398 3.88361C45.3365 3.88532 44.547 4.44768 44.5436 5.70114C44.5419 6.47015 44.856 7.77104 46.306 7.76429C47.79 7.75749 47.9191 6.29399 47.9292 5.73163C47.9326 5.47077 47.79 3.87855 46.2398 3.88361Z" fill="#696158"/>
<path d="M52.7551 1.02041C52.361 1.02041 52.0408 1.34055 52.0408 1.73469C52.0408 2.12884 52.361 2.44898 52.7551 2.44898C53.1492 2.44898 53.4694 2.12884 53.4694 1.73469C53.4694 1.34055 53.1492 1.02041 52.7551 1.02041ZM52.7551 1.13573C53.0856 1.13573 53.3541 1.40423 53.3541 1.73469C53.3541 2.06516 53.0856 2.33366 52.7551 2.33366C52.4246 2.33366 52.1561 2.06516 52.1561 1.73469C52.1561 1.40423 52.4246 1.13573 52.7551 1.13573Z" fill="#696158"/>
<path d="M52.614 1.57481V1.75806H52.7731C52.8316 1.75806 52.8676 1.72104 52.8676 1.66366C52.8676 1.61183 52.8301 1.57481 52.7761 1.57481H52.614ZM52.449 1.42857H52.7881C52.9412 1.42857 53.0387 1.51927 53.0387 1.66181C53.0387 1.73955 53.0087 1.85062 52.8871 1.88209L53.0612 2.2449H52.8841L52.7191 1.90615H52.611V2.2449H52.449V1.42857Z" fill="#696158"/>
<path d="M5 10C7.76218 10 10 7.76049 10 5C10 2.23951 7.76218 0 5 0C2.23782 0 0 2.23951 0 5C0 7.76049 2.23782 10 5 10Z" fill="#696158"/>
<path d="M7.95596 5.90819L6.99446 3.50637L6.97938 3.46927C6.94588 3.38493 6.8772 3.37819 6.82527 3.4524L6.76664 3.54011L5.97935 4.52006L5.95757 4.55379C5.90732 4.62969 5.83529 4.62295 5.79844 4.5403L4.43156 1.48912C4.39471 1.40647 4.34111 1.40816 4.31263 1.49587L4.27411 1.61393L2.04288 8.30663C2.03618 8.32855 2.04623 8.35385 2.06633 8.36229C2.07304 8.36566 2.07806 8.36735 2.08476 8.36735C2.09984 8.36735 2.11491 8.35891 2.12329 8.34373L4.28583 4.55548C4.33106 4.47621 4.40309 4.47621 4.44832 4.55548L5.0614 5.65519L5.67616 6.75489L5.75656 6.89826L5.84702 6.76164L6.37467 5.95879L6.904 5.15593C6.95258 5.08172 7.03633 5.07835 7.09161 5.14581L7.8789 5.94867C7.88728 5.96047 7.90068 5.96722 7.91408 5.96722C7.92078 5.96722 7.92916 5.96553 7.93586 5.96216C7.95596 5.95204 7.96433 5.92843 7.95596 5.90819Z" fill="white"/>
</svg>
